<mxfile host="app.diagrams.net" agent="Mozilla/5.0 (Windows NT 10.0; Win64; x64) AppleWebKit/537.36 (KHTML, like Gecko) Chrome/129.0.0.0 Safari/537.36" version="24.7.16">
  <diagram name="Page-1" id="zR3bXNkIfJ0vjWZE7jQ9">
    <mxGraphModel dx="1050" dy="522" grid="1" gridSize="10" guides="1" tooltips="1" connect="1" arrows="1" fold="1" page="1" pageScale="1" pageWidth="850" pageHeight="1100" math="0" shadow="0">
      <root>
        <mxCell id="0" />
        <mxCell id="1" parent="0" />
        <mxCell id="c9B_0dHlC3kWTEbB721p-24" value="" style="rounded=0;whiteSpace=wrap;html=1;" vertex="1" parent="1">
          <mxGeometry x="260" y="90" width="120" height="60" as="geometry" />
        </mxCell>
        <mxCell id="c9B_0dHlC3kWTEbB721p-25" value="" style="rounded=0;whiteSpace=wrap;html=1;" vertex="1" parent="1">
          <mxGeometry x="520" y="90" width="120" height="60" as="geometry" />
        </mxCell>
        <mxCell id="c9B_0dHlC3kWTEbB721p-26" value="" style="rounded=0;whiteSpace=wrap;html=1;" vertex="1" parent="1">
          <mxGeometry x="260" y="210" width="120" height="60" as="geometry" />
        </mxCell>
        <mxCell id="c9B_0dHlC3kWTEbB721p-27" value="" style="rounded=0;whiteSpace=wrap;html=1;" vertex="1" parent="1">
          <mxGeometry x="520" y="220" width="120" height="60" as="geometry" />
        </mxCell>
        <mxCell id="c9B_0dHlC3kWTEbB721p-28" value="" style="rounded=0;whiteSpace=wrap;html=1;" vertex="1" parent="1">
          <mxGeometry x="260" y="350" width="120" height="60" as="geometry" />
        </mxCell>
        <mxCell id="c9B_0dHlC3kWTEbB721p-29" value="" style="rounded=0;whiteSpace=wrap;html=1;" vertex="1" parent="1">
          <mxGeometry x="520" y="350" width="120" height="60" as="geometry" />
        </mxCell>
        <mxCell id="c9B_0dHlC3kWTEbB721p-92" style="edgeStyle=orthogonalEdgeStyle;rounded=0;orthogonalLoop=1;jettySize=auto;html=1;exitX=1;exitY=0.75;exitDx=0;exitDy=0;entryX=0;entryY=0;entryDx=0;entryDy=0;" edge="1" parent="1" source="c9B_0dHlC3kWTEbB721p-30" target="c9B_0dHlC3kWTEbB721p-41">
          <mxGeometry relative="1" as="geometry">
            <mxPoint x="460" y="340" as="targetPoint" />
            <Array as="points">
              <mxPoint x="461" y="135" />
              <mxPoint x="461" y="350" />
            </Array>
          </mxGeometry>
        </mxCell>
        <mxCell id="c9B_0dHlC3kWTEbB721p-30" value="Bus" style="text;strokeColor=none;align=center;fillColor=none;html=1;verticalAlign=middle;whiteSpace=wrap;rounded=0;" vertex="1" parent="1">
          <mxGeometry x="260" y="90" width="120" height="60" as="geometry" />
        </mxCell>
        <mxCell id="c9B_0dHlC3kWTEbB721p-31" value="" style="rounded=1;whiteSpace=wrap;html=1;" vertex="1" parent="1">
          <mxGeometry x="190" y="10" width="80" height="30" as="geometry" />
        </mxCell>
        <mxCell id="c9B_0dHlC3kWTEbB721p-32" value="Reg_Num" style="text;strokeColor=none;align=center;fillColor=none;html=1;verticalAlign=middle;whiteSpace=wrap;rounded=0;" vertex="1" parent="1">
          <mxGeometry x="200" y="10" width="60" height="30" as="geometry" />
        </mxCell>
        <mxCell id="c9B_0dHlC3kWTEbB721p-65" style="edgeStyle=orthogonalEdgeStyle;rounded=0;orthogonalLoop=1;jettySize=auto;html=1;exitX=1;exitY=0.5;exitDx=0;exitDy=0;entryX=0;entryY=0;entryDx=0;entryDy=0;" edge="1" parent="1" source="c9B_0dHlC3kWTEbB721p-33" target="c9B_0dHlC3kWTEbB721p-30">
          <mxGeometry relative="1" as="geometry" />
        </mxCell>
        <mxCell id="c9B_0dHlC3kWTEbB721p-33" value="" style="rounded=1;whiteSpace=wrap;html=1;" vertex="1" parent="1">
          <mxGeometry x="140" y="60" width="80" height="30" as="geometry" />
        </mxCell>
        <mxCell id="c9B_0dHlC3kWTEbB721p-34" value="Capacity" style="text;strokeColor=none;align=center;fillColor=none;html=1;verticalAlign=middle;whiteSpace=wrap;rounded=0;" vertex="1" parent="1">
          <mxGeometry x="150" y="60" width="60" height="30" as="geometry" />
        </mxCell>
        <mxCell id="c9B_0dHlC3kWTEbB721p-66" style="edgeStyle=orthogonalEdgeStyle;rounded=0;orthogonalLoop=1;jettySize=auto;html=1;exitX=1;exitY=0.5;exitDx=0;exitDy=0;entryX=0;entryY=0.5;entryDx=0;entryDy=0;" edge="1" parent="1" source="c9B_0dHlC3kWTEbB721p-35" target="c9B_0dHlC3kWTEbB721p-30">
          <mxGeometry relative="1" as="geometry" />
        </mxCell>
        <mxCell id="c9B_0dHlC3kWTEbB721p-35" value="" style="rounded=1;whiteSpace=wrap;html=1;" vertex="1" parent="1">
          <mxGeometry x="140" y="110" width="80" height="30" as="geometry" />
        </mxCell>
        <mxCell id="c9B_0dHlC3kWTEbB721p-36" value="Type" style="text;strokeColor=none;align=center;fillColor=none;html=1;verticalAlign=middle;whiteSpace=wrap;rounded=0;" vertex="1" parent="1">
          <mxGeometry x="150" y="110" width="60" height="30" as="geometry" />
        </mxCell>
        <mxCell id="c9B_0dHlC3kWTEbB721p-80" style="edgeStyle=orthogonalEdgeStyle;rounded=0;orthogonalLoop=1;jettySize=auto;html=1;exitX=1;exitY=1;exitDx=0;exitDy=0;entryX=1;entryY=0;entryDx=0;entryDy=0;" edge="1" parent="1" source="c9B_0dHlC3kWTEbB721p-37" target="c9B_0dHlC3kWTEbB721p-38">
          <mxGeometry relative="1" as="geometry" />
        </mxCell>
        <mxCell id="c9B_0dHlC3kWTEbB721p-37" value="Route" style="text;strokeColor=none;align=center;fillColor=none;html=1;verticalAlign=middle;whiteSpace=wrap;rounded=0;" vertex="1" parent="1">
          <mxGeometry x="260" y="210" width="120" height="60" as="geometry" />
        </mxCell>
        <mxCell id="c9B_0dHlC3kWTEbB721p-89" style="edgeStyle=orthogonalEdgeStyle;rounded=0;orthogonalLoop=1;jettySize=auto;html=1;exitX=1;exitY=0.25;exitDx=0;exitDy=0;entryX=0;entryY=0.25;entryDx=0;entryDy=0;" edge="1" parent="1" source="c9B_0dHlC3kWTEbB721p-38" target="c9B_0dHlC3kWTEbB721p-41">
          <mxGeometry relative="1" as="geometry" />
        </mxCell>
        <mxCell id="c9B_0dHlC3kWTEbB721p-38" value="Town" style="text;strokeColor=none;align=center;fillColor=none;html=1;verticalAlign=middle;whiteSpace=wrap;rounded=0;" vertex="1" parent="1">
          <mxGeometry x="260" y="350" width="120" height="60" as="geometry" />
        </mxCell>
        <mxCell id="c9B_0dHlC3kWTEbB721p-83" style="edgeStyle=orthogonalEdgeStyle;rounded=0;orthogonalLoop=1;jettySize=auto;html=1;exitX=0.5;exitY=1;exitDx=0;exitDy=0;entryX=0.5;entryY=0;entryDx=0;entryDy=0;" edge="1" parent="1" source="c9B_0dHlC3kWTEbB721p-39" target="c9B_0dHlC3kWTEbB721p-40">
          <mxGeometry relative="1" as="geometry" />
        </mxCell>
        <mxCell id="c9B_0dHlC3kWTEbB721p-39" value="Driver" style="text;strokeColor=none;align=center;fillColor=none;html=1;verticalAlign=middle;whiteSpace=wrap;rounded=0;" vertex="1" parent="1">
          <mxGeometry x="520" y="90" width="120" height="60" as="geometry" />
        </mxCell>
        <mxCell id="c9B_0dHlC3kWTEbB721p-86" style="edgeStyle=orthogonalEdgeStyle;rounded=0;orthogonalLoop=1;jettySize=auto;html=1;exitX=0;exitY=0.5;exitDx=0;exitDy=0;entryX=1;entryY=0.75;entryDx=0;entryDy=0;" edge="1" parent="1" source="c9B_0dHlC3kWTEbB721p-40" target="c9B_0dHlC3kWTEbB721p-37">
          <mxGeometry relative="1" as="geometry" />
        </mxCell>
        <mxCell id="c9B_0dHlC3kWTEbB721p-40" value="Stage" style="text;strokeColor=none;align=center;fillColor=none;html=1;verticalAlign=middle;whiteSpace=wrap;rounded=0;" vertex="1" parent="1">
          <mxGeometry x="520" y="220" width="120" height="60" as="geometry" />
        </mxCell>
        <mxCell id="c9B_0dHlC3kWTEbB721p-41" value="Garage" style="text;strokeColor=none;align=center;fillColor=none;html=1;verticalAlign=middle;whiteSpace=wrap;rounded=0;" vertex="1" parent="1">
          <mxGeometry x="520" y="350" width="120" height="60" as="geometry" />
        </mxCell>
        <mxCell id="c9B_0dHlC3kWTEbB721p-68" style="edgeStyle=orthogonalEdgeStyle;rounded=0;orthogonalLoop=1;jettySize=auto;html=1;exitX=1;exitY=0.5;exitDx=0;exitDy=0;entryX=0.25;entryY=0;entryDx=0;entryDy=0;" edge="1" parent="1" source="c9B_0dHlC3kWTEbB721p-42" target="c9B_0dHlC3kWTEbB721p-37">
          <mxGeometry relative="1" as="geometry" />
        </mxCell>
        <mxCell id="c9B_0dHlC3kWTEbB721p-42" value="" style="rounded=1;whiteSpace=wrap;html=1;" vertex="1" parent="1">
          <mxGeometry x="150" y="180" width="80" height="30" as="geometry" />
        </mxCell>
        <mxCell id="c9B_0dHlC3kWTEbB721p-43" value="Route_No" style="text;strokeColor=none;align=center;fillColor=none;html=1;verticalAlign=middle;whiteSpace=wrap;rounded=0;" vertex="1" parent="1">
          <mxGeometry x="160" y="180" width="60" height="30" as="geometry" />
        </mxCell>
        <mxCell id="c9B_0dHlC3kWTEbB721p-44" value="" style="rounded=1;whiteSpace=wrap;html=1;" vertex="1" parent="1">
          <mxGeometry x="130" y="240" width="80" height="30" as="geometry" />
        </mxCell>
        <mxCell id="c9B_0dHlC3kWTEbB721p-69" style="edgeStyle=orthogonalEdgeStyle;rounded=0;orthogonalLoop=1;jettySize=auto;html=1;entryX=0;entryY=0.5;entryDx=0;entryDy=0;" edge="1" parent="1" source="c9B_0dHlC3kWTEbB721p-45" target="c9B_0dHlC3kWTEbB721p-37">
          <mxGeometry relative="1" as="geometry" />
        </mxCell>
        <mxCell id="c9B_0dHlC3kWTEbB721p-45" value="Avg_Passengers_per_day" style="text;strokeColor=none;align=center;fillColor=none;html=1;verticalAlign=middle;whiteSpace=wrap;rounded=0;" vertex="1" parent="1">
          <mxGeometry x="140" y="240" width="60" height="30" as="geometry" />
        </mxCell>
        <mxCell id="c9B_0dHlC3kWTEbB721p-71" style="edgeStyle=orthogonalEdgeStyle;rounded=0;orthogonalLoop=1;jettySize=auto;html=1;exitX=1;exitY=0.5;exitDx=0;exitDy=0;" edge="1" parent="1" source="c9B_0dHlC3kWTEbB721p-46" target="c9B_0dHlC3kWTEbB721p-38">
          <mxGeometry relative="1" as="geometry" />
        </mxCell>
        <mxCell id="c9B_0dHlC3kWTEbB721p-46" value="" style="rounded=1;whiteSpace=wrap;html=1;" vertex="1" parent="1">
          <mxGeometry x="200" y="300" width="80" height="30" as="geometry" />
        </mxCell>
        <mxCell id="c9B_0dHlC3kWTEbB721p-47" value="Town_id" style="text;strokeColor=none;align=center;fillColor=none;html=1;verticalAlign=middle;whiteSpace=wrap;rounded=0;" vertex="1" parent="1">
          <mxGeometry x="210" y="300" width="60" height="30" as="geometry" />
        </mxCell>
        <mxCell id="c9B_0dHlC3kWTEbB721p-72" style="edgeStyle=orthogonalEdgeStyle;rounded=0;orthogonalLoop=1;jettySize=auto;html=1;exitX=1;exitY=0.5;exitDx=0;exitDy=0;entryX=0;entryY=0.5;entryDx=0;entryDy=0;" edge="1" parent="1" source="c9B_0dHlC3kWTEbB721p-48" target="c9B_0dHlC3kWTEbB721p-38">
          <mxGeometry relative="1" as="geometry" />
        </mxCell>
        <mxCell id="c9B_0dHlC3kWTEbB721p-48" value="" style="rounded=1;whiteSpace=wrap;html=1;" vertex="1" parent="1">
          <mxGeometry x="150" y="365" width="80" height="30" as="geometry" />
        </mxCell>
        <mxCell id="c9B_0dHlC3kWTEbB721p-49" value="Name" style="text;strokeColor=none;align=center;fillColor=none;html=1;verticalAlign=middle;whiteSpace=wrap;rounded=0;" vertex="1" parent="1">
          <mxGeometry x="160" y="365" width="60" height="30" as="geometry" />
        </mxCell>
        <mxCell id="c9B_0dHlC3kWTEbB721p-73" style="edgeStyle=orthogonalEdgeStyle;rounded=0;orthogonalLoop=1;jettySize=auto;html=1;exitX=1;exitY=0.5;exitDx=0;exitDy=0;entryX=0.25;entryY=1;entryDx=0;entryDy=0;" edge="1" parent="1" source="c9B_0dHlC3kWTEbB721p-50" target="c9B_0dHlC3kWTEbB721p-38">
          <mxGeometry relative="1" as="geometry" />
        </mxCell>
        <mxCell id="c9B_0dHlC3kWTEbB721p-50" value="" style="rounded=1;whiteSpace=wrap;html=1;" vertex="1" parent="1">
          <mxGeometry x="170" y="420" width="80" height="30" as="geometry" />
        </mxCell>
        <mxCell id="c9B_0dHlC3kWTEbB721p-51" value="Garage_id" style="text;strokeColor=none;align=center;fillColor=none;html=1;verticalAlign=middle;whiteSpace=wrap;rounded=0;" vertex="1" parent="1">
          <mxGeometry x="180" y="420" width="60" height="30" as="geometry" />
        </mxCell>
        <mxCell id="c9B_0dHlC3kWTEbB721p-74" style="edgeStyle=orthogonalEdgeStyle;rounded=0;orthogonalLoop=1;jettySize=auto;html=1;exitX=0;exitY=0.5;exitDx=0;exitDy=0;entryX=0.75;entryY=0;entryDx=0;entryDy=0;" edge="1" parent="1" source="c9B_0dHlC3kWTEbB721p-52" target="c9B_0dHlC3kWTEbB721p-39">
          <mxGeometry relative="1" as="geometry" />
        </mxCell>
        <mxCell id="c9B_0dHlC3kWTEbB721p-52" value="" style="rounded=1;whiteSpace=wrap;html=1;" vertex="1" parent="1">
          <mxGeometry x="680" y="40" width="80" height="30" as="geometry" />
        </mxCell>
        <mxCell id="c9B_0dHlC3kWTEbB721p-53" value="Emp_No" style="text;strokeColor=none;align=center;fillColor=none;html=1;verticalAlign=middle;whiteSpace=wrap;rounded=0;" vertex="1" parent="1">
          <mxGeometry x="690" y="40" width="60" height="30" as="geometry" />
        </mxCell>
        <mxCell id="c9B_0dHlC3kWTEbB721p-75" style="edgeStyle=orthogonalEdgeStyle;rounded=0;orthogonalLoop=1;jettySize=auto;html=1;exitX=0;exitY=0.5;exitDx=0;exitDy=0;entryX=1;entryY=0.25;entryDx=0;entryDy=0;" edge="1" parent="1" source="c9B_0dHlC3kWTEbB721p-54" target="c9B_0dHlC3kWTEbB721p-39">
          <mxGeometry relative="1" as="geometry" />
        </mxCell>
        <mxCell id="c9B_0dHlC3kWTEbB721p-54" value="" style="rounded=1;whiteSpace=wrap;html=1;" vertex="1" parent="1">
          <mxGeometry x="710" y="80" width="80" height="30" as="geometry" />
        </mxCell>
        <mxCell id="c9B_0dHlC3kWTEbB721p-55" value="Name" style="text;strokeColor=none;align=center;fillColor=none;html=1;verticalAlign=middle;whiteSpace=wrap;rounded=0;" vertex="1" parent="1">
          <mxGeometry x="720" y="80" width="60" height="30" as="geometry" />
        </mxCell>
        <mxCell id="c9B_0dHlC3kWTEbB721p-56" value="" style="rounded=1;whiteSpace=wrap;html=1;" vertex="1" parent="1">
          <mxGeometry x="730" y="120" width="80" height="30" as="geometry" />
        </mxCell>
        <mxCell id="c9B_0dHlC3kWTEbB721p-57" value="Address" style="text;strokeColor=none;align=center;fillColor=none;html=1;verticalAlign=middle;whiteSpace=wrap;rounded=0;" vertex="1" parent="1">
          <mxGeometry x="740" y="120" width="60" height="30" as="geometry" />
        </mxCell>
        <mxCell id="c9B_0dHlC3kWTEbB721p-77" style="edgeStyle=orthogonalEdgeStyle;rounded=0;orthogonalLoop=1;jettySize=auto;html=1;exitX=0;exitY=0.5;exitDx=0;exitDy=0;entryX=1;entryY=1;entryDx=0;entryDy=0;" edge="1" parent="1" source="c9B_0dHlC3kWTEbB721p-58" target="c9B_0dHlC3kWTEbB721p-39">
          <mxGeometry relative="1" as="geometry" />
        </mxCell>
        <mxCell id="c9B_0dHlC3kWTEbB721p-58" value="" style="rounded=1;whiteSpace=wrap;html=1;" vertex="1" parent="1">
          <mxGeometry x="700" y="160" width="80" height="30" as="geometry" />
        </mxCell>
        <mxCell id="c9B_0dHlC3kWTEbB721p-59" value="Contact" style="text;strokeColor=none;align=center;fillColor=none;html=1;verticalAlign=middle;whiteSpace=wrap;rounded=0;" vertex="1" parent="1">
          <mxGeometry x="710" y="160" width="60" height="30" as="geometry" />
        </mxCell>
        <mxCell id="c9B_0dHlC3kWTEbB721p-78" style="edgeStyle=orthogonalEdgeStyle;rounded=0;orthogonalLoop=1;jettySize=auto;html=1;exitX=0;exitY=0.5;exitDx=0;exitDy=0;entryX=1;entryY=0.5;entryDx=0;entryDy=0;" edge="1" parent="1" source="c9B_0dHlC3kWTEbB721p-60" target="c9B_0dHlC3kWTEbB721p-40">
          <mxGeometry relative="1" as="geometry" />
        </mxCell>
        <mxCell id="c9B_0dHlC3kWTEbB721p-60" value="" style="rounded=1;whiteSpace=wrap;html=1;" vertex="1" parent="1">
          <mxGeometry x="720" y="240" width="80" height="30" as="geometry" />
        </mxCell>
        <mxCell id="c9B_0dHlC3kWTEbB721p-61" value="Stage_ID" style="text;strokeColor=none;align=center;fillColor=none;html=1;verticalAlign=middle;whiteSpace=wrap;rounded=0;" vertex="1" parent="1">
          <mxGeometry x="730" y="240" width="60" height="30" as="geometry" />
        </mxCell>
        <mxCell id="c9B_0dHlC3kWTEbB721p-79" style="edgeStyle=orthogonalEdgeStyle;rounded=0;orthogonalLoop=1;jettySize=auto;html=1;exitX=0;exitY=0.5;exitDx=0;exitDy=0;" edge="1" parent="1" source="c9B_0dHlC3kWTEbB721p-62">
          <mxGeometry relative="1" as="geometry">
            <mxPoint x="650" y="375" as="targetPoint" />
          </mxGeometry>
        </mxCell>
        <mxCell id="c9B_0dHlC3kWTEbB721p-62" value="" style="rounded=1;whiteSpace=wrap;html=1;" vertex="1" parent="1">
          <mxGeometry x="750" y="360" width="80" height="30" as="geometry" />
        </mxCell>
        <mxCell id="c9B_0dHlC3kWTEbB721p-63" value="Garage_ID" style="text;strokeColor=none;align=center;fillColor=none;html=1;verticalAlign=middle;whiteSpace=wrap;rounded=0;" vertex="1" parent="1">
          <mxGeometry x="760" y="360" width="60" height="30" as="geometry" />
        </mxCell>
        <mxCell id="c9B_0dHlC3kWTEbB721p-64" style="edgeStyle=orthogonalEdgeStyle;rounded=0;orthogonalLoop=1;jettySize=auto;html=1;exitX=1;exitY=0.5;exitDx=0;exitDy=0;entryX=0.397;entryY=-0.053;entryDx=0;entryDy=0;entryPerimeter=0;" edge="1" parent="1" source="c9B_0dHlC3kWTEbB721p-31" target="c9B_0dHlC3kWTEbB721p-30">
          <mxGeometry relative="1" as="geometry" />
        </mxCell>
        <mxCell id="c9B_0dHlC3kWTEbB721p-76" style="edgeStyle=orthogonalEdgeStyle;rounded=0;orthogonalLoop=1;jettySize=auto;html=1;exitX=0;exitY=0.5;exitDx=0;exitDy=0;entryX=1.03;entryY=0.64;entryDx=0;entryDy=0;entryPerimeter=0;" edge="1" parent="1" source="c9B_0dHlC3kWTEbB721p-56" target="c9B_0dHlC3kWTEbB721p-39">
          <mxGeometry relative="1" as="geometry" />
        </mxCell>
        <mxCell id="c9B_0dHlC3kWTEbB721p-81" value="N" style="text;strokeColor=none;align=center;fillColor=none;html=1;verticalAlign=middle;whiteSpace=wrap;rounded=0;" vertex="1" parent="1">
          <mxGeometry x="365" y="270" width="45" height="20" as="geometry" />
        </mxCell>
        <mxCell id="c9B_0dHlC3kWTEbB721p-82" value="M" style="text;strokeColor=none;align=center;fillColor=none;html=1;verticalAlign=middle;whiteSpace=wrap;rounded=0;" vertex="1" parent="1">
          <mxGeometry x="357.5" y="320" width="60" height="30" as="geometry" />
        </mxCell>
        <mxCell id="c9B_0dHlC3kWTEbB721p-84" value="M" style="text;strokeColor=none;align=center;fillColor=none;html=1;verticalAlign=middle;whiteSpace=wrap;rounded=0;" vertex="1" parent="1">
          <mxGeometry x="540" y="150" width="50" height="20" as="geometry" />
        </mxCell>
        <mxCell id="c9B_0dHlC3kWTEbB721p-85" value="1" style="text;strokeColor=none;align=center;fillColor=none;html=1;verticalAlign=middle;whiteSpace=wrap;rounded=0;" vertex="1" parent="1">
          <mxGeometry x="535" y="190" width="60" height="30" as="geometry" />
        </mxCell>
        <mxCell id="c9B_0dHlC3kWTEbB721p-87" value="M" style="text;strokeColor=none;align=center;fillColor=none;html=1;verticalAlign=middle;whiteSpace=wrap;rounded=0;" vertex="1" parent="1">
          <mxGeometry x="475" y="230" width="60" height="30" as="geometry" />
        </mxCell>
        <mxCell id="c9B_0dHlC3kWTEbB721p-88" value="1" style="text;strokeColor=none;align=center;fillColor=none;html=1;verticalAlign=middle;whiteSpace=wrap;rounded=0;" vertex="1" parent="1">
          <mxGeometry x="365" y="230" width="60" height="30" as="geometry" />
        </mxCell>
        <mxCell id="c9B_0dHlC3kWTEbB721p-90" value="M" style="text;strokeColor=none;align=center;fillColor=none;html=1;verticalAlign=middle;whiteSpace=wrap;rounded=0;" vertex="1" parent="1">
          <mxGeometry x="365" y="360" width="60" height="30" as="geometry" />
        </mxCell>
        <mxCell id="c9B_0dHlC3kWTEbB721p-91" value="1" style="text;strokeColor=none;align=center;fillColor=none;html=1;verticalAlign=middle;whiteSpace=wrap;rounded=0;" vertex="1" parent="1">
          <mxGeometry x="475" y="360" width="60" height="30" as="geometry" />
        </mxCell>
        <mxCell id="c9B_0dHlC3kWTEbB721p-93" value="m" style="text;strokeColor=none;align=center;fillColor=none;html=1;verticalAlign=middle;whiteSpace=wrap;rounded=0;" vertex="1" parent="1">
          <mxGeometry x="370" y="110" width="60" height="30" as="geometry" />
        </mxCell>
        <mxCell id="c9B_0dHlC3kWTEbB721p-94" value="1" style="text;strokeColor=none;align=center;fillColor=none;html=1;verticalAlign=middle;whiteSpace=wrap;rounded=0;" vertex="1" parent="1">
          <mxGeometry x="475" y="320" width="60" height="30" as="geometry" />
        </mxCell>
      </root>
    </mxGraphModel>
  </diagram>
</mxfile>
